<?xml version="1.0" encoding="utf-8"?>
<!-- Generator: Adobe Illustrator 22.0.1, SVG Export Plug-In . SVG Version: 6.00 Build 0)  -->
<svg version="1.1" id="Capa_1" xmlns="http://www.w3.org/2000/svg" xmlns:xlink="http://www.w3.org/1999/xlink" x="0px" y="0px"
	 viewBox="0 0 252 220.7" style="enable-background:new 0 0 252 220.7;" xml:space="preserve">
<style type="text/css">
	.st0{fill:#707070;}
	.st1{fill:#FBA75F;}
	.st2{fill:#666666;}
	.st3{fill:#757575;}
	.st4{fill:#F38539;}
	.st5{fill:#F38335;}
	.st6{fill:#FF0101;}
	.st7{fill:#6A85D2;}
	.st8{fill:#4876ED;}
	.st9{fill:#00A651;}
	.st10{fill:#F98928;}
	.st11{fill:#A186BE;}
	.st12{fill:#2CA3FF;}
	.st13{fill:#39C4B5;}
	.st14{fill:#7A9D52;}
</style>
<g>
	<g>
		<g>
			<g>
				<path class="st2" d="M199.7,26.2V53h-13.4V26.2H64.6V53H51.2V26.2H10.9v183.4h198.2l30.8,0.1V26.2H199.7z M226.5,169.3l0,26.8
					l-26.8,0H24.3V79.8h202.2V169.3z"/>
			</g>
		</g>
		<g>
			<g>
				<rect x="132.1" y="97.7" class="st2" width="26.8" height="17.9"/>
			</g>
		</g>
		<g>
			<g>
				<rect x="91.9" y="97.7" class="st2" width="26.8" height="17.9"/>
			</g>
		</g>
		<g>
			<g>
				<rect x="172.4" y="97.7" class="st2" width="26.8" height="17.9"/>
			</g>
		</g>
		<g>
			<g>
				<rect x="132.1" y="129" class="st2" width="26.8" height="17.9"/>
			</g>
		</g>
		<g>
			<g>
				<rect x="91.9" y="129" class="st2" width="26.8" height="17.9"/>
			</g>
		</g>
		<g>
			<g>
				<rect x="51.6" y="129" class="st2" width="26.8" height="17.9"/>
			</g>
		</g>
		<g>
			<g>
				<rect x="172.4" y="129" class="st2" width="26.8" height="17.9"/>
			</g>
		</g>
		<g>
			<g>
				<rect x="132.1" y="160.3" class="st2" width="26.8" height="17.9"/>
			</g>
		</g>
		<g>
			<g>
				<rect x="172.1" y="160.3" class="st2" width="26.8" height="17.9"/>
			</g>
		</g>
		<g>
			<g>
				<rect x="91.9" y="160.3" class="st2" width="26.8" height="17.9"/>
			</g>
		</g>
		<g>
			<g>
				<rect x="51.6" y="160.3" class="st2" width="26.8" height="17.9"/>
			</g>
		</g>
		<g>
			<g>
				<rect x="186.2" y="12.7" class="st2" width="13.4" height="13.4"/>
			</g>
		</g>
		<g>
			<g>
				<rect x="51.2" y="12.7" class="st2" width="13.4" height="13.4"/>
			</g>
		</g>
	</g>
</g>
</svg>
