<?xml version="1.0" encoding="utf-8"?>
<!-- Generator: Adobe Illustrator 22.0.1, SVG Export Plug-In . SVG Version: 6.00 Build 0)  -->
<svg version="1.1" id="Layer_1" xmlns="http://www.w3.org/2000/svg" xmlns:xlink="http://www.w3.org/1999/xlink" x="0px" y="0px"
	 viewBox="0 0 27.1 27.1" style="enable-background:new 0 0 27.1 27.1;" xml:space="preserve">
<style type="text/css">
	.st0{fill:#676767;}
</style>
<g>
	<path class="st0" d="M23,22.4H4.6c-1.5,0-2.4-0.9-2.4-2.4V7.6c0-1.5,0.9-2.5,2.4-2.5H23c1.5,0,2.4,1,2.4,2.5V20
		C25.4,21.5,24.5,22.4,23,22.4z M4.6,6.3C4,6.3,3.4,6.9,3.4,7.6V20c0,0.7,0.6,1.2,1.2,1.2H23c0.7,0,1.2-0.6,1.2-1.2V7.6
		c0-0.7-0.6-1.2-1.2-1.2H4.6z"/>
	<path class="st0" d="M9.4,13.8c-1.4,0-2.5-1.1-2.5-2.5c0-1.4,1.1-2.5,2.5-2.5s2.5,1.1,2.5,2.5C11.8,12.7,10.7,13.8,9.4,13.8z
		 M9.4,10c-0.7,0-1.2,0.6-1.2,1.2c0,0.7,0.6,1.2,1.2,1.2c0.7,0,1.2-0.6,1.2-1.2C10.6,10.6,10,10,9.4,10z"/>
	<path class="st0" d="M13.1,18.7c-0.4,0-0.5-0.3-0.5-0.7v-0.5c0-0.7-0.8-1.5-1.5-1.5H7.6c-0.7,0-1.4,0.8-1.4,1.5V18
		c0,0.4-0.1,0.7-0.5,0.7S4.9,18.4,4.9,18v-0.5c0-1.5,1.2-2.7,2.7-2.7h3.5c1.5,0,2.7,1.2,2.7,2.7V18C13.8,18.4,13.5,18.7,13.1,18.7z"
		/>
	<path class="st0" d="M22,10.7h-5.5c-0.4,0-0.5-0.2-0.5-0.6s0.1-0.5,0.5-0.5H22c0.4,0,0.6,0.1,0.6,0.5S22.4,10.7,22,10.7z"/>
	<path class="st0" d="M22,14.5h-5.5c-0.4,0-0.5-0.2-0.5-0.6s0.1-0.5,0.5-0.5H22c0.4,0,0.6,0.1,0.6,0.5S22.4,14.5,22,14.5z"/>
	<path class="st0" d="M22,18.6h-5.5c-0.4,0-0.5-0.2-0.5-0.6s0.1-0.5,0.5-0.5H22c0.4,0,0.6,0.1,0.6,0.5S22.4,18.6,22,18.6z"/>
</g>
</svg>
