<?xml version="1.0" encoding="utf-8"?>
<!-- Generator: Adobe Illustrator 22.0.1, SVG Export Plug-In . SVG Version: 6.00 Build 0)  -->
<svg version="1.1" id="Capa_1" xmlns="http://www.w3.org/2000/svg" xmlns:xlink="http://www.w3.org/1999/xlink" x="0px" y="0px"
	 viewBox="0 0 177 177.5" style="enable-background:new 0 0 177 177.5;" xml:space="preserve">
<style type="text/css">
	.st0{fill:#707070;}
	.st1{fill:#FBA75F;}
	.st2{fill:#666666;}
	.st3{fill:#757575;}
	.st4{fill:#F38539;}
	.st5{fill:#F38335;}
	.st6{fill:#FF0101;}
	.st7{fill:#6A85D2;}
	.st8{fill:#4876ED;}
	.st9{fill:#00A651;}
	.st10{fill:#F98928;}
	.st11{fill:#A186BE;}
	.st12{fill:#2CA3FF;}
	.st13{fill:#39C4B5;}
	.st14{fill:#7A9D52;}
</style>
<g>
	<g>
		<g>
			<g>
				<path class="st11" d="M161.5,124.4l-27-22.5c-1.3-1.1-3.2-1.4-4.8-0.6c-1.6,0.7-2.6,2.3-2.6,4.1v13.5h-7.5
					c-6.3,0-12-3.2-15.3-8.5L75,63.7C68.4,53.1,57,46.8,44.5,46.8H18.9v18h25.6c6.3,0,12,3.2,15.3,8.5L88.9,120
					c6.6,10.6,18.1,16.9,30.6,16.9h7.5v13.5c0,1.7,1,3.3,2.6,4.1c0.6,0.3,1.3,0.4,1.9,0.4c1,0,2.1-0.4,2.9-1l27-22.5
					c1-0.9,1.6-2.1,1.6-3.5C163.1,126.6,162.5,125.3,161.5,124.4z"/>
			</g>
		</g>
		<g>
			<g>
				<path class="st11" d="M161.5,52.3l-27-22.5c-1.3-1.1-3.2-1.4-4.8-0.6c-1.6,0.7-2.6,2.3-2.6,4.1v13.5h-7.5
					c-12.5,0-23.9,6.3-30.6,16.9l-1.6,2.6l10.6,17l6.3-10.1c3.3-5.3,9-8.5,15.3-8.5h7.5v13.5c0,1.7,1,3.3,2.6,4.1
					c0.6,0.3,1.3,0.4,1.9,0.4c1,0,2.1-0.4,2.9-1l27-22.5c1-0.9,1.6-2.1,1.6-3.5C163.1,54.5,162.5,53.2,161.5,52.3z"/>
			</g>
		</g>
		<g>
			<g>
				<path class="st11" d="M66,100.3l-6.3,10.1c-3.3,5.3-9,8.5-15.3,8.5H18.9v18h25.6c12.5,0,23.9-6.3,30.6-16.9l1.6-2.6L66,100.3z"
					/>
			</g>
		</g>
	</g>
</g>
</svg>
