<?xml version="1.0" encoding="utf-8"?>
<!-- Generator: Adobe Illustrator 22.0.1, SVG Export Plug-In . SVG Version: 6.00 Build 0)  -->
<svg version="1.1" id="Capa_1" xmlns="http://www.w3.org/2000/svg" xmlns:xlink="http://www.w3.org/1999/xlink" x="0px" y="0px"
	 viewBox="0 0 177 177.5" style="enable-background:new 0 0 177 177.5;" xml:space="preserve">
<style type="text/css">
	.st0{fill:#707070;}
	.st1{fill:#FBA75F;}
	.st2{fill:#666666;}
	.st3{fill:#757575;}
	.st4{fill:#F38539;}
	.st5{fill:#F38335;}
	.st6{fill:#FF0101;}
	.st7{fill:#6A85D2;}
	.st8{fill:#4876ED;}
	.st9{fill:#00A651;}
	.st10{fill:#F98928;}
	.st11{fill:#A186BE;}
	.st12{fill:#2CA3FF;}
	.st13{fill:#39C4B5;}
	.st14{fill:#7A9D52;}
</style>
<g>
	<g>
		<g>
			<g>
				<path class="st8" d="M127.6,82.3c-0.8-1.7-2.5-2.8-4.3-2.8h-19.1V17.6c0-2.6-2.1-4.8-4.8-4.8H80.4c-2.6,0-4.8,2.1-4.8,4.8v61.9
					H56.6c-1.9,0-3.6,1.1-4.3,2.8C51.4,84,51.7,86,53,87.4l33.3,38.1c0.9,1,2.2,1.6,3.6,1.6s2.7-0.6,3.6-1.6l33.3-38.1
					C128.1,86,128.4,84,127.6,82.3z"/>
			</g>
		</g>
		<g>
			<g>
				<path class="st8" d="M142.3,117.6v28.6H37.5v-28.6H18.4v38.1c0,5.3,4.3,9.5,9.5,9.5h123.9c5.3,0,9.5-4.3,9.5-9.5v-38.1H142.3z"
					/>
			</g>
		</g>
	</g>
</g>
</svg>
