<?xml version="1.0" encoding="utf-8"?>
<!-- Generator: Adobe Illustrator 22.0.1, SVG Export Plug-In . SVG Version: 6.00 Build 0)  -->
<svg version="1.1" id="Capa_1" xmlns="http://www.w3.org/2000/svg" xmlns:xlink="http://www.w3.org/1999/xlink" x="0px" y="0px"
	 viewBox="0 0 177 177.5" style="enable-background:new 0 0 177 177.5;" xml:space="preserve">
<style type="text/css">
	.st0{fill:#666666;}
</style>
<g>
	<path class="st0" d="M142.5,46.3c-0.1-1.1-0.5-2.1-1.3-2.9l-26-26c-0.8-0.8-1.9-1.3-3.1-1.3H39.7c-4.5,0-8.2,3.7-8.2,8.2v131
		c0,4.5,3.7,8.2,8.2,8.2h94.7c4.5,0,8.2-3.7,8.2-8.2V46.9l0.2-0.3L142.5,46.3z M115.8,51h17.9v103.8H40.3V25h67.3v17.9
		C107.6,47.3,111.3,51,115.8,51z M116.4,42.2v-11l11,11H116.4z"/>
	<path class="st0" d="M52.5,67.1c0,2.4,2,4.4,4.4,4.4h60.3c2.4,0,4.4-2,4.4-4.4s-2-4.4-4.4-4.4H56.9C54.4,62.7,52.5,64.7,52.5,67.1z
		"/>
	<path class="st0" d="M117.1,83.3H56.9c-2.4,0-4.4,2-4.4,4.4s2,4.4,4.4,4.4h60.3c2.4,0,4.4-2,4.4-4.4S119.5,83.3,117.1,83.3z"/>
	<path class="st0" d="M117.1,103.8H56.9c-2.4,0-4.4,2-4.4,4.4s2,4.4,4.4,4.4h60.3c2.4,0,4.4-2,4.4-4.4S119.5,103.8,117.1,103.8z"/>
	<path class="st0" d="M87,124.3H56.9c-2.4,0-4.4,2-4.4,4.4c0,2.4,2,4.4,4.4,4.4H87c2.4,0,4.4-2,4.4-4.4
		C91.4,126.3,89.4,124.3,87,124.3z"/>
</g>
</svg>
