<?xml version="1.0" encoding="utf-8"?>
<!-- Generator: Adobe Illustrator 22.0.1, SVG Export Plug-In . SVG Version: 6.00 Build 0)  -->
<svg version="1.1" id="Capa_1" xmlns="http://www.w3.org/2000/svg" xmlns:xlink="http://www.w3.org/1999/xlink" x="0px" y="0px"
	 viewBox="0 0 177 177.5" style="enable-background:new 0 0 177 177.5;" xml:space="preserve">
<style type="text/css">
	.st0{fill:#707070;}
	.st1{fill:#FBA75F;}
	.st2{fill:#666666;}
	.st3{fill:#757575;}
	.st4{fill:#F38539;}
	.st5{fill:#F38335;}
	.st6{fill:#FF0101;}
	.st7{fill:#6A85D2;}
	.st8{fill:#4876ED;}
	.st9{fill:#00A651;}
	.st10{fill:#F98928;}
	.st11{fill:#A186BE;}
	.st12{fill:#2CA3FF;}
	.st13{fill:#39C4B5;}
	.st14{fill:#7A9D52;}
</style>
<path class="st10" d="M130.4,68.8h-4.5v-18c0-19.9-16.1-36-36-36s-36,16.1-36,36v18h-4.5c-7.4,0-13.5,6.1-13.5,13.5v63
	c0,7.4,6.1,13.5,13.5,13.5h81c7.4,0,13.5-6.1,13.5-13.5v-63C143.9,74.9,137.8,68.8,130.4,68.8z M65.9,50.8c0-13.2,10.8-24,24-24
	s24,10.8,24,24v18h-48V50.8z M95.9,115.1v13.7c0,3.3-2.7,6-6,6s-6-2.7-6-6v-13.7c-3.6-2.1-6-5.9-6-10.3c0-6.6,5.4-12,12-12
	s12,5.4,12,12C101.9,109.2,99.4,113.1,95.9,115.1z"/>
</svg>
