<?xml version="1.0" encoding="utf-8"?>
<!-- Generator: Adobe Illustrator 22.0.1, SVG Export Plug-In . SVG Version: 6.00 Build 0)  -->
<svg version="1.1" id="Capa_1" xmlns="http://www.w3.org/2000/svg" xmlns:xlink="http://www.w3.org/1999/xlink" x="0px" y="0px"
	 viewBox="0 0 130.5 130.8" style="enable-background:new 0 0 130.5 130.8;" xml:space="preserve">
<style type="text/css">
	.st0{fill:#707070;}
	.st1{fill:#FBA75F;}
	.st2{fill:#666666;}
	.st3{fill:#757575;}
	.st4{fill:#F38539;}
	.st5{fill:#F38335;}
	.st6{fill:#FF0101;}
	.st7{fill:#6A85D2;}
	.st8{fill:#4876ED;}
	.st9{fill:#00A651;}
	.st10{fill:#F98928;}
	.st11{fill:#A186BE;}
	.st12{fill:#2CA3FF;}
	.st13{fill:#39C4B5;}
	.st14{fill:#7A9D52;}
</style>
<g transform="translate(1 1)">
	<g>
		<g>
			<path class="st2" d="M63.9,6C31.6,6,5.4,32.2,5.4,64.5s26.2,58.5,58.5,58.5s58.5-26.2,58.5-58.5S96.2,6,63.9,6z M63.9,113.3
				c-26.9,0-48.8-21.8-48.8-48.8S37,15.8,63.9,15.8s48.8,21.8,48.8,48.8S90.8,113.3,63.9,113.3z"/>
			<path class="st2" d="M93.2,59.7H34.7c-2.7,0-4.9,2.2-4.9,4.9c0,2.7,2.2,4.9,4.9,4.9h58.5c2.7,0,4.9-2.2,4.9-4.9
				C98,61.8,95.9,59.7,93.2,59.7z"/>
		</g>
	</g>
</g>
</svg>
