<?xml version="1.0" encoding="utf-8"?>
<!-- Generator: Adobe Illustrator 22.0.1, SVG Export Plug-In . SVG Version: 6.00 Build 0)  -->
<svg version="1.1" id="Capa_1" xmlns="http://www.w3.org/2000/svg" xmlns:xlink="http://www.w3.org/1999/xlink" x="0px" y="0px"
	 viewBox="0 0 409.6 409.6" style="enable-background:new 0 0 409.6 409.6;" xml:space="preserve">
<style type="text/css">
	.st40{fill:#FFFFFF;}
</style>
<g>
	<g>
		<path class="st40" d="M392.5,17.1H17.1C7.6,17.1,0,24.7,0,34.1s7.6,17.1,17.1,17.1h375.5c9.4,0,17.1-7.6,17.1-17.1
			S402,17.1,392.5,17.1z"/>
	</g>
</g>
<g>
	<g>
		<path class="st40" d="M392.5,187.7H17.1c-9.4,0-17.1,7.6-17.1,17.1s7.6,17.1,17.1,17.1h375.5c9.4,0,17.1-7.6,17.1-17.1
			S402,187.7,392.5,187.7z"/>
	</g>
</g>
<g>
	<g>
		<path class="st40" d="M392.5,358.4H17.1C7.6,358.4,0,366,0,375.5s7.6,17.1,17.1,17.1h375.5c9.4,0,17.1-7.6,17.1-17.1
			S402,358.4,392.5,358.4z"/>
	</g>
</g>
</svg>
