<?xml version="1.0" encoding="utf-8"?>
<!-- Generator: Adobe Illustrator 22.0.1, SVG Export Plug-In . SVG Version: 6.00 Build 0)  -->
<svg version="1.1" id="Capa_1" xmlns="http://www.w3.org/2000/svg" xmlns:xlink="http://www.w3.org/1999/xlink" x="0px" y="0px"
	 viewBox="0 0 130.5 130.8" style="enable-background:new 0 0 130.5 130.8;" xml:space="preserve">
<style type="text/css">
	.st0{fill:#707070;}
	.st1{fill:#FBA75F;}
	.st2{fill:#666666;}
	.st3{fill:#757575;}
	.st4{fill:#F38539;}
	.st5{fill:#F38335;}
	.st6{fill:#FF0101;}
	.st7{fill:#6A85D2;}
	.st8{fill:#4876ED;}
	.st9{fill:#00A651;}
	.st10{fill:#F98928;}
	.st11{fill:#A186BE;}
	.st12{fill:#2CA3FF;}
	.st13{fill:#39C4B5;}
	.st14{fill:#7A9D52;}
</style>
<g>
	<g>
		<g>
			<path class="st2" d="M64.8,6.9C32.4,6.9,6.2,33.2,6.2,65.5s26.3,58.6,58.6,58.6s58.6-26.3,58.6-58.6S97.1,6.9,64.8,6.9z
				 M64.8,115c-27.3,0-49.5-22.2-49.5-49.5S37.5,16,64.8,16s49.5,22.2,49.5,49.5S92.1,115,64.8,115z"/>
		</g>
	</g>
	<g>
		<g>
			<path class="st2" d="M87.4,60.6H69.3V42.4c0-2.5-2-4.5-4.5-4.5c-2.5,0-4.5,2-4.5,4.5v18.2H42.1c-2.5,0-4.5,2-4.5,4.5
				s2,4.5,4.5,4.5h18.2v18.2c0,2.5,2,4.5,4.5,4.5c2.5,0,4.5-2,4.5-4.5V69.6h18.2c2.5,0,4.5-2,4.5-4.5S89.9,60.6,87.4,60.6z"/>
		</g>
	</g>
</g>
</svg>
