<?xml version="1.0" encoding="utf-8"?>
<!-- Generator: Adobe Illustrator 22.0.1, SVG Export Plug-In . SVG Version: 6.00 Build 0)  -->
<svg version="1.1" id="Layer_1" xmlns="http://www.w3.org/2000/svg" xmlns:xlink="http://www.w3.org/1999/xlink" x="0px" y="0px"
	 viewBox="0 0 27.1 27.1" style="enable-background:new 0 0 27.1 27.1;" xml:space="preserve">
<style type="text/css">
	.st11{fill:#676767;}
</style>
<g>
	<g>
		<g>
			<g>
				<path class="st11" d="M10.2,12c0,1.7,1.4,3.2,3.2,3.2s3.2-1.4,3.2-3.2s-1.4-3.2-3.2-3.2S10.2,10.3,10.2,12z M15.4,12
					c0,1.1-0.9,2.1-2.1,2.1s-2.1-0.9-2.1-2.1s0.9-2.1,2.1-2.1S15.4,10.9,15.4,12z"/>
				<path class="st11" d="M20.5,14.2C20.5,14.2,20.5,14.2,20.5,14.2l-1,0c-1.5,0-2.9,0.8-3.7,2.1c-0.6-0.3-1.3-0.5-2-0.5h-0.9
					c-0.7,0-1.4,0.1-2,0.5c-0.8-1.3-2.2-2.1-3.7-2.1H6.3c-2.4,0-4.4,1.9-4.4,4.4c0,0,0,0,0,0.1v1.7c0,0.3,0.2,0.7,0.5,0.7h6v0.9
					c0,0.3,0.3,0.5,0.6,0.5h8.6c0.3,0,0.6-0.2,0.6-0.5V21h6c0.3,0,0.5-0.4,0.5-0.7v-1.7C24.8,16.2,22.9,14.2,20.5,14.2z M8.6,19.9H3
					v-1.3c0-1.8,1.4-3.3,3.2-3.3c0,0,0,0,0.1,0h0.9c1.2,0,2.3,0.6,2.9,1.7C9.2,17.6,8.6,18.7,8.6,19.9z M17.2,21.2H9.6v-0.9
					c0-1.9,1.5-3.4,3.4-3.5h0.9c1.9,0.1,3.4,1.6,3.4,3.5V21.2z M23.7,18.6v1.3h-5.5c-0.1-1.1-0.6-2.2-1.5-3c0.6-1,1.7-1.6,2.9-1.7
					h0.9C22.2,15.2,23.7,16.7,23.7,18.6C23.7,18.5,23.7,18.5,23.7,18.6z"/>
				<path class="st11" d="M20,7.3c-1.7,0-3.2,1.4-3.2,3.2s1.4,3.2,3.2,3.2c1.7,0,3.2-1.4,3.2-3.2S21.7,7.3,20,7.3z M20,12.5
					c-1.1,0-2.1-0.9-2.1-2.1s0.9-2.1,2.1-2.1c1.1,0,2.1,0.9,2.1,2.1S21.1,12.5,20,12.5z"/>
				<path class="st11" d="M6.8,13.6c1.7,0,3.2-1.4,3.2-3.2S8.5,7.3,6.8,7.3s-3.2,1.4-3.2,3.2S5,13.6,6.8,13.6z M6.8,8.4
					c1.1,0,2.1,0.9,2.1,2.1s-0.9,2.1-2.1,2.1s-2.1-0.9-2.1-2.1S5.6,8.4,6.8,8.4z"/>
			</g>
		</g>
	</g>
</g>
</svg>
