<?xml version="1.0" encoding="utf-8"?>
<!-- Generator: Adobe Illustrator 22.0.1, SVG Export Plug-In . SVG Version: 6.00 Build 0)  -->
<svg version="1.1" id="Capa_1" xmlns="http://www.w3.org/2000/svg" xmlns:xlink="http://www.w3.org/1999/xlink" x="0px" y="0px"
	 viewBox="0 0 395 395" style="enable-background:new 0 0 395 395;" xml:space="preserve">
<style type="text/css">
	.st0{fill:#666666;}
</style>
<g>
	<path class="st0" d="M60.2,145.2C31.4,145.2,8,168.7,8,197.5c0,28.8,23.4,52.3,52.3,52.3s52.3-23.4,52.3-52.3
		C112.5,168.7,89,145.2,60.2,145.2z M87.3,197.5c0,14.9-12.1,27.1-27.1,27.1s-27.1-12.1-27.1-27.1c0-14.9,12.1-27.1,27.1-27.1
		S87.3,182.6,87.3,197.5z"/>
	<path class="st0" d="M374.4,184.9H144.6c-6.9,0-12.6,5.7-12.6,12.6s5.7,12.6,12.6,12.6h229.8c6.9,0,12.6-5.7,12.6-12.6
		S381.3,184.9,374.4,184.9z"/>
	<path class="st0" d="M60.2,2.9C31.4,2.9,8,26.3,8,55.1s23.4,52.3,52.3,52.3s52.3-23.4,52.3-52.3S89,2.9,60.2,2.9z M87.3,55.1
		c0,14.9-12.1,27.1-27.1,27.1S33.2,70.1,33.2,55.1s12.1-27.1,27.1-27.1S87.3,40.2,87.3,55.1z"/>
	<path class="st0" d="M144.6,67.7h229.8c6.9,0,12.6-5.7,12.6-12.6s-5.7-12.6-12.6-12.6H144.6c-6.9,0-12.6,5.7-12.6,12.6
		S137.7,67.7,144.6,67.7z"/>
	<path class="st0" d="M60.2,287.6C31.4,287.6,8,311,8,339.8s23.4,52.3,52.3,52.3s52.3-23.4,52.3-52.3S89,287.6,60.2,287.6z
		 M87.3,339.8c0,14.9-12.1,27.1-27.1,27.1s-27.1-12.1-27.1-27.1s12.1-27.1,27.1-27.1S87.3,324.9,87.3,339.8z"/>
	<path class="st0" d="M374.4,327.2H144.6c-6.9,0-12.6,5.7-12.6,12.6s5.7,12.6,12.6,12.6h229.8c6.9,0,12.6-5.7,12.6-12.6
		S381.3,327.2,374.4,327.2z"/>
</g>
</svg>
