<?xml version="1.0" encoding="utf-8"?>
<!-- Generator: Adobe Illustrator 22.0.1, SVG Export Plug-In . SVG Version: 6.00 Build 0)  -->
<svg version="1.1" id="Layer_1" xmlns="http://www.w3.org/2000/svg" xmlns:xlink="http://www.w3.org/1999/xlink" x="0px" y="0px"
	 viewBox="0 0 27.1 27.1" style="enable-background:new 0 0 27.1 27.1;" xml:space="preserve">
<style type="text/css">
	.st11{fill:#676767;}
</style>
<g>
	<path class="st11" d="M11.6,9.5H20c0.3,0,0.6-0.3,0.6-0.6S20.3,8.3,20,8.3h-8.4c-0.3,0-0.6,0.3-0.6,0.6S11.2,9.5,11.6,9.5z"/>
	<path class="st11" d="M11.6,14.9H20c0.3,0,0.6-0.3,0.6-0.6c0-0.3-0.3-0.6-0.6-0.6h-8.4c-0.3,0-0.6,0.3-0.6,0.6
		C11,14.6,11.2,14.9,11.6,14.9z"/>
	<path class="st11" d="M11.6,20.2H20c0.3,0,0.6-0.3,0.6-0.6c0-0.3-0.3-0.6-0.6-0.6h-8.4c-0.3,0-0.6,0.3-0.6,0.6
		C11,20,11.2,20.2,11.6,20.2z"/>
	<path class="st11" d="M24.3,3H3.6C3.2,3,3,3.2,3,3.6v20.7c0,0.3,0.3,0.6,0.6,0.6h20.7c0.3,0,0.6-0.3,0.6-0.6V3.6
		C24.9,3.2,24.6,3,24.3,3z M23.7,4.2v19.5H4.2V4.2H23.7z"/>
	<polygon class="st11" points="7.3,10.3 8.5,9.6 9.7,10.3 9.5,8.9 10.5,8 9.1,7.8 8.5,6.6 7.9,7.8 6.6,8 7.6,8.9 	"/>
	<polygon class="st11" points="7.3,15.6 8.5,15 9.7,15.6 9.5,14.3 10.5,13.4 9.1,13.2 8.5,12 7.9,13.2 6.6,13.4 7.6,14.3 	"/>
	<polygon class="st11" points="7.3,21.2 8.5,20.5 9.7,21.2 9.5,19.8 10.5,18.9 9.1,18.7 8.5,17.5 7.9,18.7 6.6,18.9 7.6,19.8 	"/>
</g>
</svg>
