<?xml version="1.0" encoding="utf-8"?>
<!-- Generator: Adobe Illustrator 22.0.1, SVG Export Plug-In . SVG Version: 6.00 Build 0)  -->
<svg version="1.1" id="Layer_1" xmlns="http://www.w3.org/2000/svg" xmlns:xlink="http://www.w3.org/1999/xlink" x="0px" y="0px"
	 viewBox="0 0 27.1 27.1" style="enable-background:new 0 0 27.1 27.1;" xml:space="preserve">
<style type="text/css">
	.st11{fill:#676767;}
</style>
<g>
	<g>
		<g>
			<path class="st11" d="M24.4,12.8l-2-0.9l-1.7-2.8c-0.5-0.8-1.4-1.3-2.4-1.3H11c-0.9,0-1.7,0.4-2.2,1.1l-2.2,2.9l-3.8,1
				c-1,0.3-1.6,1.1-1.6,2.1v1.4c0,1.2,1,2.2,2.2,2.2h0.3c0.4,1.5,1.9,2.4,3.4,2c1-0.3,1.7-1,2-2h8.4c0.4,1.5,1.9,2.4,3.4,2
				c1-0.3,1.7-1,2-2h0.6c1.2,0,2.2-1,2.2-2.2v-1.6C25.7,14,25.2,13.2,24.4,12.8z M6.4,19.8c-1,0-1.8-0.8-1.8-1.8s0.8-1.8,1.8-1.8
				S8.1,17,8.1,18S7.3,19.8,6.4,19.8z M20.2,19.8c-1,0-1.8-0.8-1.8-1.8s0.8-1.8,1.8-1.8S22,17,22,18S21.2,19.8,20.2,19.8z
				 M24.7,16.5c0,0.6-0.5,1.2-1.2,1.2H23c-0.2-1.5-1.6-2.6-3.1-2.5c-1.3,0.1-2.3,1.2-2.5,2.5H9.1C9,16.1,7.6,15,6.1,15.2
				c-1.3,0.1-2.3,1.2-2.5,2.5H3.3c-0.6,0-1.2-0.5-1.2-1.2v-1.4c0-0.5,0.4-1,0.9-1.1L7,12.8c0.1,0,0.2-0.1,0.3-0.2l2.3-3.1
				c0.3-0.4,0.8-0.7,1.4-0.7h7.4c0.6,0,1.2,0.3,1.5,0.8l1.8,2.9c0.1,0.1,0.1,0.2,0.2,0.2l2.1,1c0.4,0.2,0.7,0.6,0.7,1.1V16.5z"/>
		</g>
	</g>
</g>
</svg>
