<?xml version="1.0" encoding="utf-8"?>
<!-- Generator: Adobe Illustrator 22.0.1, SVG Export Plug-In . SVG Version: 6.00 Build 0)  -->
<svg version="1.1" id="Layer_1" xmlns="http://www.w3.org/2000/svg" xmlns:xlink="http://www.w3.org/1999/xlink" x="0px" y="0px"
	 viewBox="0 0 27.1 27.1" style="enable-background:new 0 0 27.1 27.1;" xml:space="preserve">
<style type="text/css">
	.st11{fill:#676767;}
</style>
<path class="st11" d="M24.7,5.8C24.7,5.8,24.7,5.8,24.7,5.8l-6.3,0V5.1C18.4,4,17.5,3,16.3,3h-5.6C9.6,3,8.6,4,8.6,5.1v0.7H2.3
	c-0.4,0-0.7,0.3-0.7,0.7v15.3C1.6,23,2.5,24,3.7,24h19.6c1.2,0,2.1-0.9,2.1-2.1V6.5c0,0,0,0,0,0C25.4,6.1,25.1,5.8,24.7,5.8z
	 M9.5,5.1c0-0.4,0.8-1.2,1.2-1.2h5.6c0.4,0,1.2,0.8,1.2,1.2v0.7h-8V5.1z M23.8,6.8l-2.1,6.7c-0.1,0.3-0.4,0.3-0.7,0.3l-3.9,0v-0.4
	c0-0.4-0.3-0.7-0.7-0.7h-5.6c-0.4,0-0.7,0.3-0.7,0.7v0.4H6.1c-0.3,0-0.6-0.2-0.7-0.5L3.3,6.8H23.8z M15.9,13.9v2h-4.6v-2H15.9z
	 M24.4,21.9c0,0.4-0.7,1.1-1.1,1.1H3.7c-0.4,0-1.2-0.7-1.2-1.1V8.6l1.6,4.6c0.3,0.9,0.5,1.6,2,1.7h3.9l0,1.4c0,0.4,0.3,0.7,0.7,0.7
	h5.6c0.4,0,0.7-0.3,0.7-0.7v-1.4h3.9c0.9,0,1.4,0.1,1.7-0.8l1.8-5.4V21.9z"/>
</svg>
