<?xml version="1.0" encoding="utf-8"?>
<!-- Generator: Adobe Illustrator 22.0.1, SVG Export Plug-In . SVG Version: 6.00 Build 0)  -->
<svg version="1.1" id="Capa_1" xmlns="http://www.w3.org/2000/svg" xmlns:xlink="http://www.w3.org/1999/xlink" x="0px" y="0px"
	 viewBox="0 0 468 371" style="enable-background:new 0 0 468 371;" xml:space="preserve">
<style type="text/css">
	.st0{fill:#666666;}
</style>
<g>
	<path class="st0" d="M448.5,138.8l-9.7-10.3l-35.1-94.7c-6.2-16.7-22.5-28-40.4-28.1H111.5c-17.9,0-34.1,11.3-40.4,28.1l-34.6,93.4
		l-14.1,13C9.4,151.4,1.9,167.7,1.9,184.8v138.5C2,347,21.3,366.2,45,366.2h26c23.7,0,43-19.3,43.1-42.9v-18.1h240.3v18.1
		c0.1,23.7,19.5,42.9,43.1,42.9h26c23.7,0,43-19.3,43.1-42.9V181.2C466.6,165.2,460,149.8,448.5,138.8z M333.8,88.9
		c16.9,3.6,30.4,16.5,34.8,33.1h-88.7C286.1,98.6,309.8,83.8,333.8,88.9z M63.6,122l29.7-80.1c2.9-7.6,10-12.5,18.1-12.5h251.9
		c8,0,15.3,5,18.1,12.5l29.7,80.1h-18.4c-3-17.7-12.6-33.3-27-44c-14.9-11.1-33.3-15.7-51.6-12.9c-14.9,2.2-28.4,9-39,19.6
		c-10.2,10.2-16.9,23.1-19.3,37.3H63.6z M90.5,323.3c-0.1,10.7-8.8,19.3-19.5,19.3H45c-10.7,0-19.4-8.7-19.5-19.3v-22.4
		c5.5,2.8,12.3,4.3,19.5,4.3h45.5V323.3z M443.1,263.5c-0.3,4.7-2.3,9.1-5.7,12.4c-3.7,3.6-8.5,5.6-13.7,5.5H45c-0.1,0-0.1,0-0.2,0
		c-5.1,0-9.9-2-13.5-5.5c-3.7-3.6-5.7-8.4-5.8-13.6v-77.6c0-10.3,4.5-20,12.4-26.7l13.3-12.5h371.3l8.8,9.4c0.1,0.2,0.3,0.3,0.4,0.4
		l0.3,0.2c7,6.6,11,15.9,11,25.5v81.2L443.1,263.5z M378.1,305.2h45.5c7.2,0,14-1.5,19.5-4.3v22.4c-0.1,10.7-8.8,19.3-19.5,19.3h-26
		c-10.7,0-19.4-8.7-19.5-19.3V305.2z"/>
	<path class="st0" d="M133.9,181.1H60c-6.5,0-11.8,5.3-11.8,11.8v51.2c0,6.5,5.3,11.8,11.8,11.8h73.9c6.5,0,11.8-5.3,11.8-11.8
		v-51.2C145.7,186.4,140.4,181.1,133.9,181.1z M122,204.7v27.6H71.8v-27.6H122z"/>
	<path class="st0" d="M408.6,181.1h-73.9c-6.5,0-11.8,5.3-11.8,11.8v51.2c0,6.5,5.3,11.8,11.8,11.8h73.9c6.5,0,11.8-5.3,11.8-11.8
		v-51.2C420.4,186.4,415.1,181.1,408.6,181.1z M396.8,204.7v27.6h-50.2v-27.6H396.8z"/>
	<path class="st0" d="M281.9,222.4h-95.1c-6.5,0-11.8,5.3-11.8,11.8c0,6.5,5.3,11.8,11.8,11.8h95.1c6.5,0,11.8-5.3,11.8-11.8
		C293.7,227.7,288.4,222.4,281.9,222.4z"/>
	<path class="st0" d="M281.9,191.9h-95.1c-6.5,0-11.8,5.3-11.8,11.8c0,6.5,5.3,11.8,11.8,11.8h95.1c6.5,0,11.8-5.3,11.8-11.8
		C293.7,197.2,288.4,191.9,281.9,191.9z"/>
</g>
</svg>
