<?xml version="1.0" encoding="utf-8"?>
<!-- Generator: Adobe Illustrator 22.0.1, SVG Export Plug-In . SVG Version: 6.00 Build 0)  -->
<svg version="1.1" id="Layer_1" xmlns="http://www.w3.org/2000/svg" xmlns:xlink="http://www.w3.org/1999/xlink" x="0px" y="0px"
	 viewBox="0 0 27.1 27.1" style="enable-background:new 0 0 27.1 27.1;" xml:space="preserve">
<style type="text/css">
	.st11{fill:#676767;}
</style>
<path class="st11" d="M24.1,10.8h-1.2V8.5c0-0.6-0.5-1.1-1.1-1.1h-9.1l-1.9-2.6H3.7c-0.6,0-1.1,0.5-1.1,1.1v16.3l0,0.1h0
	c0,0.2,0.1,0.4,0.2,0.5c0.2,0.3,0.5,0.4,0.9,0.4h16.7c0.5,0,0.9-0.3,1-0.8l3.8-10.4l0-0.1C25.2,11.3,24.7,10.8,24.1,10.8z M7.4,11.8
	C7.4,11.8,7.4,11.7,7.4,11.8l16.7-0.1c0,0,0,0.1,0.1,0.2l-3.8,10.3l0,0c0,0,0,0.1-0.1,0.1H3.7c0,0-0.1,0-0.1,0c0,0,0,0,0,0
	c0,0,0,0,0,0L7.4,11.8z M21.9,10.8H7.4c-0.1,0-0.1,0-0.2,0c-0.4,0.1-0.8,0.4-0.8,0.7l-2.8,7.7V5.9c0-0.1,0.1-0.1,0.1-0.1h6.5
	l1.9,2.6h9.7c0.1,0,0.1,0.1,0.1,0.1V10.8z"/>
</svg>
