<?xml version="1.0" encoding="utf-8"?>
<!-- Generator: Adobe Illustrator 22.0.1, SVG Export Plug-In . SVG Version: 6.00 Build 0)  -->
<svg version="1.1" id="Capa_1" xmlns="http://www.w3.org/2000/svg" xmlns:xlink="http://www.w3.org/1999/xlink" x="0px" y="0px"
	 viewBox="0 0 177 177.5" style="enable-background:new 0 0 177 177.5;" xml:space="preserve">
<style type="text/css">
	.st0{fill:#707070;}
	.st1{fill:#FBA75F;}
	.st2{fill:#666666;}
	.st3{fill:#757575;}
	.st4{fill:#F38539;}
	.st5{fill:#F38335;}
	.st6{fill:#FF0101;}
	.st7{fill:#6A85D2;}
	.st8{fill:#4876ED;}
	.st9{fill:#00A651;}
	.st10{fill:#F98928;}
	.st11{fill:#A186BE;}
	.st12{fill:#2CA3FF;}
	.st13{fill:#39C4B5;}
	.st14{fill:#7A9D52;}
</style>
<g>
	<g>
		<g>
			<g>
				<path class="st14" d="M169.5,88.9H54.1c-3.7,0-6.6,3-6.6,6.6c0,3.7,3,6.6,6.6,6.6h115.4c3.7,0,6.6-3,6.6-6.6
					C176.1,91.9,173.2,88.9,169.5,88.9z"/>
			</g>
		</g>
		<g>
			<g>
				<path class="st14" d="M169.5,39.1H54.1c-3.7,0-6.6,3-6.6,6.6c0,3.7,3,6.6,6.6,6.6h115.4c3.7,0,6.6-3,6.6-6.6
					C176.1,42.1,173.2,39.1,169.5,39.1z"/>
			</g>
		</g>
		<g>
			<g>
				<path class="st14" d="M169.5,138.7H54.1c-3.7,0-6.6,3-6.6,6.6s3,6.6,6.6,6.6h115.4c3.7,0,6.6-3,6.6-6.6S173.2,138.7,169.5,138.7
					z"/>
			</g>
		</g>
		<g>
			<g>
				<circle class="st14" cx="15.2" cy="45.8" r="9"/>
			</g>
		</g>
		<g>
			<g>
				<circle class="st14" cx="15.2" cy="95.5" r="9"/>
			</g>
		</g>
		<g>
			<g>
				<circle class="st14" cx="15.2" cy="145.3" r="9"/>
			</g>
		</g>
	</g>
</g>
</svg>
