<?xml version="1.0" encoding="utf-8"?>
<!-- Generator: Adobe Illustrator 22.0.1, SVG Export Plug-In . SVG Version: 6.00 Build 0)  -->
<svg version="1.1" id="Capa_1" xmlns="http://www.w3.org/2000/svg" xmlns:xlink="http://www.w3.org/1999/xlink" x="0px" y="0px"
	 viewBox="0 0 177 177.5" style="enable-background:new 0 0 177 177.5;" xml:space="preserve">
<style type="text/css">
	.st0{fill:#707070;}
	.st1{fill:#FBA75F;}
	.st2{fill:#666666;}
	.st3{fill:#757575;}
	.st4{fill:#F38539;}
	.st5{fill:#F38335;}
	.st6{fill:#FF0101;}
	.st7{fill:#6A85D2;}
	.st8{fill:#4876ED;}
	.st9{fill:#00A651;}
	.st10{fill:#F98928;}
	.st11{fill:#A186BE;}
	.st12{fill:#2CA3FF;}
	.st13{fill:#39C4B5;}
	.st14{fill:#7A9D52;}
</style>
<g>
	<g>
		<g>
			<path class="st0" d="M50.9,112.5c0.5-0.5,0.7-1.1,0.7-1.9c0-0.8-0.2-1.4-0.7-1.9c-0.5-0.5-1.1-0.7-1.9-0.7H22.7
				c-0.8,0-1.4,0.2-1.9,0.7c-0.5,0.5-0.7,1.1-0.7,1.9c0,0.8,0.2,1.4,0.7,1.9c0.5,0.5,1.1,0.7,1.9,0.7H49
				C49.8,113.3,50.4,113,50.9,112.5z"/>
			<path class="st0" d="M109.6,52.6c0.8,0,1.4-0.2,1.9-0.7c0.5-0.5,0.7-1.1,0.7-1.9V23.7c0-0.8-0.2-1.4-0.7-1.9
				c-0.5-0.5-1.1-0.7-1.9-0.7c-0.8,0-1.4,0.2-1.9,0.7c-0.5,0.5-0.7,1.1-0.7,1.9V50c0,0.8,0.2,1.4,0.7,1.9
				C108.2,52.4,108.9,52.6,109.6,52.6z"/>
			<path class="st0" d="M54.3,121.2c-0.7,0-1.3,0.2-1.9,0.7L31.3,143c-0.5,0.5-0.7,1.2-0.7,1.9c0,0.7,0.2,1.3,0.7,1.9
				c0.6,0.5,1.2,0.7,1.9,0.7c0.7,0,1.3-0.2,1.9-0.7l21.1-21.1c0.5-0.5,0.7-1.2,0.7-1.9c0-0.7-0.2-1.3-0.7-1.9
				C55.6,121.4,55,121.2,54.3,121.2z"/>
			<path class="st0" d="M122.8,57.9c0.7,0,1.3-0.2,1.9-0.7l21.1-21.1c0.5-0.5,0.7-1.2,0.7-1.9c0-0.7-0.2-1.3-0.7-1.9
				c-0.6-0.5-1.2-0.7-1.9-0.7c-0.7,0-1.3,0.2-1.9,0.7l-21.1,21.1c-0.5,0.5-0.7,1.2-0.7,1.9s0.2,1.3,0.7,1.9
				C121.5,57.7,122.1,57.9,122.8,57.9z"/>
			<path class="st0" d="M121.2,76.7c-1.2-1.2-2.7-2.3-4.6-3.5l-1.5,19.7l22.6,22.6c1.5,1.5,2.3,3.4,2.3,5.6c0,2.1-0.8,4-2.3,5.5
				l-12.1,12c-1.5,1.5-3.3,2.2-5.6,2.2c-2.3,0-4.1-0.8-5.6-2.3l-22.5-22.6l-19.7,1.5c1.2,1.9,2.3,3.5,3.5,4.6l27.5,27.6
				c4.6,4.7,10.2,7,16.8,7c6.6,0,12.2-2.3,16.7-6.8l12.1-12c4.7-4.6,7-10.1,7-16.7c0-6.5-2.3-12.1-6.9-16.8L121.2,76.7z"/>
			<path class="st0" d="M156.3,66.6c-0.5-0.5-1.1-0.7-1.9-0.7h-26.4c-0.8,0-1.4,0.2-1.9,0.7c-0.5,0.5-0.7,1.1-0.7,1.9
				c0,0.8,0.2,1.4,0.7,1.9c0.5,0.5,1.1,0.7,1.9,0.7h26.4c0.8,0,1.4-0.2,1.9-0.7c0.5-0.5,0.7-1.1,0.7-1.9
				C157.1,67.7,156.8,67.1,156.3,66.6z"/>
			<path class="st0" d="M51.6,40.4c1.6-1.5,3.5-2.2,5.6-2.2c2.2,0,4.1,0.8,5.6,2.3L85.2,63l19.7-1.5c-1.2-1.9-2.3-3.5-3.5-4.6
				L74,29.3c-4.6-4.7-10.2-7-16.8-7c-6.6,0-12.2,2.3-16.7,6.8l-12.1,12c-4.7,4.6-7,10.1-7,16.7c0,6.5,2.3,12.1,6.9,16.8l27.7,27.7
				c1.2,1.2,2.7,2.3,4.6,3.5L62,86.1L39.5,63.5c-1.5-1.5-2.3-3.4-2.3-5.6c0-2.1,0.8-4,2.3-5.5L51.6,40.4z"/>
			<path class="st0" d="M67.5,126.4c-0.8,0-1.4,0.2-1.9,0.7c-0.5,0.5-0.7,1.1-0.7,1.9v26.4c0,0.8,0.2,1.4,0.7,1.9
				c0.5,0.5,1.1,0.7,1.9,0.7c0.8,0,1.4-0.2,1.9-0.7c0.5-0.5,0.7-1.1,0.7-1.9v-26.4c0-0.8-0.2-1.4-0.7-1.9
				C68.9,126.7,68.2,126.4,67.5,126.4z"/>
		</g>
	</g>
</g>
</svg>
