<?xml version="1.0" encoding="utf-8"?>
<!-- Generator: Adobe Illustrator 22.0.1, SVG Export Plug-In . SVG Version: 6.00 Build 0)  -->
<svg version="1.1" id="Capa_1" xmlns="http://www.w3.org/2000/svg" xmlns:xlink="http://www.w3.org/1999/xlink" x="0px" y="0px"
	 viewBox="0 0 177 177.5" style="enable-background:new 0 0 177 177.5;" xml:space="preserve">
<style type="text/css">
	.st0{fill:#707070;}
	.st1{fill:#FBA75F;}
	.st2{fill:#666666;}
	.st3{fill:#757575;}
	.st4{fill:#F38539;}
	.st5{fill:#F38335;}
	.st6{fill:#FF0101;}
	.st7{fill:#6A85D2;}
	.st8{fill:#4876ED;}
	.st9{fill:#00A651;}
	.st10{fill:#F98928;}
	.st11{fill:#A186BE;}
	.st12{fill:#2CA3FF;}
	.st13{fill:#39C4B5;}
	.st14{fill:#7A9D52;}
</style>
<g>
	<g>
		<path class="st2" d="M88,90c-20,0-36.3-16.3-36.3-36.3S68,17.3,88,17.3s36.3,16.3,36.3,36.3S108,90,88,90z M88,26.4
			c-15,0-27.2,12.2-27.2,27.2S73,80.9,88,80.9s27.2-12.2,27.2-27.2S103,26.4,88,26.4z"/>
		<path class="st2" d="M147,162.7H29c-2.5,0-4.5-2-4.5-4.5v-31.3c0-4.7,2.4-9.1,6.3-11.5c34.1-21.3,80.6-21.3,114.6,0
			c3.9,2.4,6.3,6.8,6.3,11.5v31.3C151.6,160.6,149.5,162.7,147,162.7z M33.5,153.6h109v-26.7c0-1.6-0.8-3-2-3.8
			c-31.2-19.5-73.8-19.5-105,0c-1.2,0.8-2,2.2-2,3.8L33.5,153.6z"/>
	</g>
</g>
</svg>
