<?xml version="1.0" encoding="utf-8"?>
<!-- Generator: Adobe Illustrator 22.0.1, SVG Export Plug-In . SVG Version: 6.00 Build 0)  -->
<svg version="1.1" id="Capa_1" xmlns="http://www.w3.org/2000/svg" xmlns:xlink="http://www.w3.org/1999/xlink" x="0px" y="0px"
	 viewBox="0 0 177 177.5" style="enable-background:new 0 0 177 177.5;" xml:space="preserve">
<style type="text/css">
	.st0{fill:#245BBC;}
</style>
<path class="st0" d="M113.9,68.8L113.9,68.8h-48l0,0h-12l0,0h-4.5c-7.4,0-13.5,6.1-13.5,13.5v63c0,7.4,6.1,13.5,13.5,13.5h81
	c7.4,0,13.5-6.1,13.5-13.5v-63c0-7.4-6.1-13.5-13.5-13.5h-4.5l0,0H113.9z M95.9,115.1v13.7c0,3.3-2.7,6-6,6s-6-2.7-6-6v-13.7
	c-3.6-2.1-6-5.9-6-10.3c0-6.6,5.4-12,12-12s12,5.4,12,12C101.9,109.2,99.4,113.1,95.9,115.1z"/>
<path class="st0" d="M89.9,14.8c-18.2,0-33.3,13.5-35.7,31.1h12.2c2.3-10.9,12-19.1,23.5-19.1c13.2,0,24,10.8,24,24v18h12v-18
	C125.9,30.9,109.8,14.8,89.9,14.8z"/>
</svg>
