<?xml version="1.0" encoding="utf-8"?>
<!-- Generator: Adobe Illustrator 22.0.1, SVG Export Plug-In . SVG Version: 6.00 Build 0)  -->
<svg version="1.1" id="Capa_1" xmlns="http://www.w3.org/2000/svg" xmlns:xlink="http://www.w3.org/1999/xlink" x="0px" y="0px"
	 viewBox="0 0 177 177.5" style="enable-background:new 0 0 177 177.5;" xml:space="preserve">
<style type="text/css">
	.st0{fill:#707070;}
	.st1{fill:#FBA75F;}
	.st2{fill:#666666;}
	.st3{fill:#757575;}
	.st4{fill:#F38539;}
	.st5{fill:#F38335;}
	.st6{fill:#FF0101;}
	.st7{fill:#6A85D2;}
	.st8{fill:#4876ED;}
	.st9{fill:#00A651;}
	.st10{fill:#F98928;}
	.st11{fill:#A186BE;}
	.st12{fill:#2CA3FF;}
	.st13{fill:#39C4B5;}
	.st14{fill:#7A9D52;}
</style>
<g>
	<g>
		<g>
			<g>
				<path class="st7" d="M166.8,79.9c-1.4-1.6-36-39.3-79.3-39.3S9.6,78.2,8.2,79.9c-1.6,1.8-1.6,4.5,0,6.3
					c1.4,1.6,36,39.3,79.3,39.3s77.9-37.7,79.3-39.3C168.4,84.4,168.4,81.6,166.8,79.9z M87.5,116c-18.2,0-33-14.8-33-33
					s14.8-33,33-33s33,14.8,33,33S105.7,116,87.5,116z"/>
			</g>
		</g>
		<g>
			<g>
				<path class="st7" d="M92.2,73.6c0-4.7,2.4-8.9,5.9-11.5c-3.2-1.6-6.8-2.7-10.7-2.7c-13,0-23.6,10.6-23.6,23.6
					s10.6,23.6,23.6,23.6c11.6,0,21.3-8.5,23.2-19.6C101.2,90,92.2,82.8,92.2,73.6z"/>
			</g>
		</g>
	</g>
</g>
</svg>
