<?xml version="1.0" encoding="utf-8"?>
<!-- Generator: Adobe Illustrator 22.0.1, SVG Export Plug-In . SVG Version: 6.00 Build 0)  -->
<svg version="1.1" id="Layer_1" xmlns="http://www.w3.org/2000/svg" xmlns:xlink="http://www.w3.org/1999/xlink" x="0px" y="0px"
	 viewBox="0 0 64.7 25.3" style="enable-background:new 0 0 64.7 25.3;" xml:space="preserve">
<style type="text/css">
	.st0{fill:url(#SVGID_1_);}
	.st1{fill:#F4912E;}
	.st2{fill:#E9215A;}
	.st3{fill:#606161;}
	.st4{fill:#B1B3B6;}
	.st5{opacity:0.2;}
	.st6{fill:#96CA4F;}
	.st7{fill:url(#SVGID_2_);}
	.st8{fill:#E8225B;}
	.st9{fill:#1B959A;}
	.st10{fill:#FFFFFF;}
	.st11{fill:#9EACB5;}
	.st12{fill:url(#SVGID_3_);}
	.st13{opacity:0.35;fill:#9EACB5;}
	.st14{fill:#F68820;}
	.st15{fill:url(#SVGID_4_);}
	.st16{fill:#070808;}
	.st17{fill:none;stroke:#E2E2E2;stroke-miterlimit:10;}
	.st18{fill:url(#SVGID_5_);}
	.st19{fill:url(#SVGID_6_);}
	.st20{fill:url(#SVGID_7_);}
	.st21{fill:url(#SVGID_8_);}
	.st22{fill:url(#SVGID_9_);}
	.st23{fill:url(#SVGID_10_);}
	.st24{fill:none;stroke:#C9C9C9;stroke-miterlimit:10;}
	.st25{fill:url(#SVGID_11_);}
	.st26{fill:url(#SVGID_12_);}
	.st27{fill:url(#SVGID_13_);}
	.st28{fill:url(#SVGID_14_);}
	.st29{fill:url(#SVGID_15_);}
	.st30{fill:url(#SVGID_16_);}
</style>
<g>
	<path class="st3" d="M29.9,12c2.2,0,3.9,1.8,3.9,4.3c0,2.6-1.7,4.3-4,4.3c-1,0-1.9-0.4-2.4-1.1h0v4.3h-2.2V12.1h2.2v1h0
		C28,12.3,28.9,12,29.9,12L29.9,12z M31.6,16.3c0-1.4-0.9-2.3-2.1-2.3c-1.3,0-2.2,1-2.2,2.3c0,1.4,0.9,2.3,2.2,2.3
		C30.7,18.5,31.6,17.6,31.6,16.3z"/>
	<path class="st3" d="M43.8,12.1v8.3h-2.1v-1h0c-0.6,0.7-1.4,1.1-2.5,1.1c-2.3,0-4-1.7-4-4.3c0-2.5,1.7-4.3,3.9-4.3
		c1,0,1.8,0.4,2.4,1.1h0v-0.9H43.8z M41.7,16.3c0-1.3-0.9-2.3-2.1-2.3c-1.2,0-2.1,0.9-2.1,2.3c0,1.3,0.9,2.3,2.1,2.3
		C40.7,18.5,41.7,17.6,41.7,16.3z"/>
	<path class="st3" d="M48.6,20.5c-1.3,0-2.5-0.4-3.4-1.2l1.1-1.5c0.7,0.6,1.4,1,2.3,1c0.6,0,1-0.3,1-0.7c0-0.4-0.4-0.6-1.5-0.9
		c-1.4-0.4-2.6-1.1-2.6-2.7c0-1.5,1.3-2.5,3-2.5c1.2,0,2.1,0.3,3,1l-1.1,1.6c-0.6-0.6-1.4-0.9-2-0.9c-0.4,0-0.8,0.2-0.8,0.6
		c0,0.3,0.4,0.6,1.2,0.9c1.8,0.7,2.9,1.1,2.9,2.7C51.9,19.4,50.8,20.5,48.6,20.5L48.6,20.5z"/>
	<path class="st3" d="M56.3,20.5c-1.3,0-2.5-0.4-3.4-1.2l1.1-1.5c0.7,0.6,1.4,1,2.3,1c0.6,0,1-0.3,1-0.7c0-0.4-0.4-0.6-1.5-0.9
		c-1.4-0.4-2.6-1.1-2.6-2.7c0-1.5,1.3-2.5,3-2.5c1.2,0,2.1,0.3,3,1l-1.1,1.6c-0.6-0.6-1.4-0.9-2-0.9c-0.4,0-0.8,0.2-0.8,0.6
		c0,0.3,0.4,0.6,1.2,0.9c1.8,0.7,2.9,1.1,2.9,2.7C59.5,19.4,58.4,20.5,56.3,20.5L56.3,20.5z"/>
</g>
<g>
	
		<linearGradient id="SVGID_1_" gradientUnits="userSpaceOnUse" x1="32.4848" y1="0.8938" x2="44.6162" y2="0.8938" gradientTransform="matrix(0.9798 0.2002 -0.2002 0.9798 -20.7008 8.2147)">
		<stop  offset="0" style="stop-color:#F7922D"/>
		<stop  offset="1" style="stop-color:#E8225B"/>
	</linearGradient>
	<path class="st0" d="M21.1,13.5L17.3,16c-1,0.6-2.2,0.9-3.4,0.7c0,0,0,0-0.1,0L10.2,19c0.9,0.6,1.8,1,2.9,1.2
		c2.3,0.5,4.6-0.1,6.4-1.4l3.6-2.4L21.1,13.5z"/>
	
		<linearGradient id="SVGID_2_" gradientUnits="userSpaceOnUse" x1="27.4552" y1="-6.0671" x2="35.6948" y2="-6.0671" gradientTransform="matrix(0.9798 0.2002 -0.2002 0.9798 -20.7008 8.2147)">
		<stop  offset="0" style="stop-color:#F7922D"/>
		<stop  offset="1" style="stop-color:#E8225B"/>
	</linearGradient>
	<path class="st7" d="M10.4,11.5c0,0,0-0.1,0-0.1c0.2-1.2,1-2.2,1.9-2.8l0.1-0.1L16.2,6l-2-3l-3.6,2.4c-1.9,1.1-3.3,3-3.8,5.3
		c-0.2,1.1-0.2,2.2,0,3.2L10.4,11.5z"/>
	
		<linearGradient id="SVGID_3_" gradientUnits="userSpaceOnUse" x1="27.4566" y1="-2.0694" x2="41.5667" y2="-2.0694" gradientTransform="matrix(0.9798 0.2002 -0.2002 0.9798 -20.7008 8.2147)">
		<stop  offset="0" style="stop-color:#F7922D"/>
		<stop  offset="1" style="stop-color:#E8225B"/>
	</linearGradient>
	<path class="st12" d="M20.4,12.3l1.5-4.8l-4.9-0.4l0.7,1.1L6.3,15.7c-0.4,0.3-0.7,0.7-0.8,1.2c-0.1,0.4,0,0.8,0.1,1.1
		c0,0,0.1,0.2,0.3,0.4c0.3,0.3,0.6,0.5,1,0.6c0.5,0.1,0.8,0.1,1.2-0.1l0.2-0.1l11.3-7.5L20.4,12.3z M6.8,17.8l-0.2-0.3l3.2-2.1
		l0.2,0.3L6.8,17.8z M11.1,14.9L11,14.6l3.2-2.1l0.2,0.3L11.1,14.9z M15.5,12l-0.2-0.3l3.2-2.1l0.2,0.3L15.5,12z"/>
</g>
</svg>
