<?xml version="1.0" encoding="utf-8"?>
<!-- Generator: Adobe Illustrator 22.0.1, SVG Export Plug-In . SVG Version: 6.00 Build 0)  -->
<svg version="1.1" id="Layer_1" xmlns="http://www.w3.org/2000/svg" xmlns:xlink="http://www.w3.org/1999/xlink" x="0px" y="0px"
	 viewBox="0 0 28.5 25.3" style="enable-background:new 0 0 28.5 25.3;" xml:space="preserve">
<style type="text/css">
	.st0{fill:url(#SVGID_1_);}
	.st1{fill:#F4912E;}
	.st2{fill:#E9215A;}
	.st3{fill:#606161;}
	.st4{fill:#B1B3B6;}
	.st5{opacity:0.2;}
	.st6{fill:#96CA4F;}
	.st7{fill:url(#SVGID_2_);}
	.st8{fill:#E8225B;}
	.st9{fill:#1B959A;}
	.st10{fill:#FFFFFF;}
	.st11{fill:#9EACB5;}
	.st12{fill:url(#SVGID_3_);}
	.st13{opacity:0.35;fill:#9EACB5;}
	.st14{fill:#F68820;}
	.st15{fill:url(#SVGID_4_);}
	.st16{fill:#070808;}
	.st17{fill:none;stroke:#E2E2E2;stroke-miterlimit:10;}
	.st18{fill:url(#SVGID_5_);}
	.st19{fill:url(#SVGID_6_);}
	.st20{fill:url(#SVGID_7_);}
	.st21{fill:url(#SVGID_8_);}
	.st22{fill:url(#SVGID_9_);}
	.st23{fill:url(#SVGID_10_);}
	.st24{fill:none;stroke:#C9C9C9;stroke-miterlimit:10;}
	.st25{fill:url(#SVGID_11_);}
	.st26{fill:url(#SVGID_12_);}
	.st27{fill:url(#SVGID_13_);}
	.st28{fill:url(#SVGID_14_);}
	.st29{fill:url(#SVGID_15_);}
	.st30{fill:url(#SVGID_16_);}
	.st31{fill:url(#SVGID_17_);}
	.st32{fill:url(#SVGID_18_);}
	.st33{fill:url(#SVGID_19_);}
</style>
<g>
	
		<linearGradient id="SVGID_1_" gradientUnits="userSpaceOnUse" x1="34.0101" y1="15.9763" x2="46.1414" y2="15.9763" gradientTransform="matrix(0.9798 0.2002 -0.2002 0.9798 -19.1755 -6.8679)">
		<stop  offset="0" style="stop-color:#F7922D"/>
		<stop  offset="1" style="stop-color:#E8225B"/>
	</linearGradient>
	<path class="st0" d="M21.1,13.5L17.3,16c-1,0.6-2.2,0.9-3.4,0.7c0,0,0,0-0.1,0L10.2,19c0.9,0.6,1.8,1,2.9,1.2
		c2.3,0.5,4.6-0.1,6.4-1.4l3.6-2.4L21.1,13.5z"/>
	
		<linearGradient id="SVGID_2_" gradientUnits="userSpaceOnUse" x1="28.9805" y1="9.0155" x2="37.22" y2="9.0155" gradientTransform="matrix(0.9798 0.2002 -0.2002 0.9798 -19.1755 -6.8679)">
		<stop  offset="0" style="stop-color:#F7922D"/>
		<stop  offset="1" style="stop-color:#E8225B"/>
	</linearGradient>
	<path class="st7" d="M10.4,11.5c0,0,0-0.1,0-0.1c0.2-1.2,1-2.2,1.9-2.8l0.1-0.1L16.2,6l-2-3l-3.6,2.4c-1.9,1.1-3.3,3-3.8,5.3
		c-0.2,1.1-0.2,2.2,0,3.2L10.4,11.5z"/>
	
		<linearGradient id="SVGID_3_" gradientUnits="userSpaceOnUse" x1="28.9818" y1="13.0132" x2="43.092" y2="13.0132" gradientTransform="matrix(0.9798 0.2002 -0.2002 0.9798 -19.1755 -6.8679)">
		<stop  offset="0" style="stop-color:#F7922D"/>
		<stop  offset="1" style="stop-color:#E8225B"/>
	</linearGradient>
	<path class="st12" d="M20.4,12.3l1.5-4.8l-4.9-0.4l0.7,1.1L6.3,15.7c-0.4,0.3-0.7,0.7-0.8,1.2c-0.1,0.4,0,0.8,0.1,1.1
		c0,0,0.1,0.2,0.3,0.4c0.3,0.3,0.6,0.5,1,0.6c0.5,0.1,0.8,0.1,1.2-0.1l0.2-0.1l11.3-7.5L20.4,12.3z M6.8,17.8l-0.2-0.3l3.2-2.1
		l0.2,0.3L6.8,17.8z M11.1,14.9L11,14.6l3.2-2.1l0.2,0.3L11.1,14.9z M15.5,12l-0.2-0.3l3.2-2.1l0.2,0.3L15.5,12z"/>
</g>
</svg>
