<?xml version="1.0" encoding="utf-8"?>
<!-- Generator: Adobe Illustrator 22.0.1, SVG Export Plug-In . SVG Version: 6.00 Build 0)  -->
<svg version="1.1" id="Layer_1" xmlns="http://www.w3.org/2000/svg" xmlns:xlink="http://www.w3.org/1999/xlink" x="0px" y="0px"
	 viewBox="0 0 68.1 28" style="enable-background:new 0 0 68.1 28;" xml:space="preserve">
<style type="text/css">
	.st0{fill:url(#SVGID_1_);}
	.st1{fill:#F4912E;}
	.st2{fill:#E9215A;}
	.st3{fill:#606161;}
	.st4{fill:#B1B3B6;}
	.st5{opacity:0.2;}
	.st6{fill:#96CA4F;}
	.st7{fill:url(#SVGID_2_);}
	.st8{fill:#E8225B;}
	.st9{fill:#1B959A;}
	.st10{fill:#FFFFFF;}
	.st11{fill:#9EACB5;}
	.st12{fill:url(#SVGID_3_);}
	.st13{opacity:0.35;fill:#9EACB5;}
	.st14{fill:#F68820;}
	.st15{fill:url(#SVGID_4_);}
	.st16{fill:#070808;}
	.st17{fill:none;stroke:#E2E2E2;stroke-miterlimit:10;}
	.st18{fill:url(#SVGID_5_);}
	.st19{fill:url(#SVGID_6_);}
	.st20{fill:url(#SVGID_7_);}
	.st21{fill:url(#SVGID_8_);}
	.st22{fill:url(#SVGID_9_);}
	.st23{fill:url(#SVGID_10_);}
	.st24{fill:none;stroke:#C9C9C9;stroke-miterlimit:10;}
	.st25{fill:url(#SVGID_11_);}
	.st26{fill:url(#SVGID_12_);}
	.st27{fill:url(#SVGID_13_);}
	.st28{fill:url(#SVGID_14_);}
	.st29{fill:url(#SVGID_15_);}
	.st30{fill:url(#SVGID_16_);}
</style>
<g>
	<path class="st10" d="M33.3,18.8h-4.7c0.2,0.8,0.8,1.3,1.7,1.3c0.7,0,1.2-0.3,1.6-0.8l1.2,1.1c-0.6,0.7-1.5,1.3-2.9,1.3
		c-1.9,0-3.4-1.4-3.4-3.4c0-2,1.4-3.4,3.3-3.4c2,0,3.3,1.4,3.3,3.4C33.3,18.4,33.3,18.7,33.3,18.8z M28.6,17.5h2.9
		c-0.2-0.7-0.7-1.2-1.4-1.2C29.4,16.4,28.8,16.8,28.6,17.5z"/>
	<path class="st10" d="M41.8,18.3c0,2.1-1.3,3.4-3.2,3.4c-0.8,0-1.5-0.3-2-0.9h0v3.4h-1.8v-9.3h1.8v0.8h0c0.5-0.6,1.2-0.9,2-0.9
		C40.4,14.8,41.8,16.2,41.8,18.3z M38.3,20.1c1,0,1.7-0.7,1.7-1.8c0-1.1-0.8-1.9-1.7-1.9c-1,0-1.7,0.8-1.7,1.9
		C36.5,19.4,37.3,20.1,38.3,20.1L38.3,20.1z"/>
	<path class="st10" d="M49.8,14.9v6.7h-1.7v-0.8h0c-0.5,0.6-1.1,0.9-2,0.9c-1.8,0-3.2-1.4-3.2-3.4c0-2,1.4-3.5,3.1-3.5
		c0.8,0,1.5,0.3,2,0.9h0v-0.8L49.8,14.9z M48.1,18.3c0-1.1-0.7-1.9-1.7-1.9c-1,0-1.7,0.7-1.7,1.9c0,1.1,0.7,1.8,1.7,1.8
		C47.4,20.1,48.1,19.4,48.1,18.3z"/>
	<path class="st10" d="M53.8,21.7c-1.1,0-2-0.3-2.7-1l0.9-1.2c0.5,0.5,1.1,0.8,1.8,0.8c0.5,0,0.8-0.2,0.8-0.6c0-0.3-0.3-0.5-1.2-0.7
		c-1.1-0.4-2-0.9-2-2.2c0-1.2,1-2,2.4-2c0.9,0,1.7,0.3,2.4,0.8l-0.9,1.3c-0.5-0.5-1.1-0.7-1.6-0.7c-0.3,0-0.7,0.2-0.7,0.5
		c0,0.3,0.3,0.5,1,0.7c1.4,0.5,2.3,0.8,2.3,2.2C56.4,20.8,55.6,21.7,53.8,21.7L53.8,21.7z"/>
	<path class="st10" d="M60,21.7c-1.1,0-2-0.3-2.7-1l0.9-1.2c0.5,0.5,1.1,0.8,1.8,0.8c0.5,0,0.8-0.2,0.8-0.6c0-0.3-0.3-0.5-1.2-0.7
		c-1.1-0.4-2-0.9-2-2.2c0-1.2,1-2,2.4-2c0.9,0,1.7,0.3,2.4,0.8l-0.9,1.3c-0.5-0.5-1.1-0.7-1.6-0.7c-0.3,0-0.7,0.2-0.7,0.5
		c0,0.3,0.3,0.5,1,0.7c1.4,0.5,2.3,0.8,2.3,2.2C62.6,20.8,61.7,21.7,60,21.7L60,21.7z"/>
</g>
<g>
	<path class="st10" d="M21,13.3l-3.3,3.3c-0.8,0.8-1.9,1.3-3.2,1.3c0,0,0,0-0.1,0l-3,3c1,0.4,2,0.6,3.1,0.6c2.4,0,4.5-1,6-2.6
		l3.1-3.1L21,13.3z"/>
	<path class="st10" d="M10.1,13.5c0,0,0-0.1,0-0.1c0-1.2,0.5-2.4,1.3-3.2l0.1-0.1l3.2-3.2l-2.6-2.6L9,7.4c-1.6,1.5-2.6,3.6-2.6,6
		c0,1.1,0.2,2.2,0.6,3.1L10.1,13.5z"/>
	<path class="st10" d="M20,12.3l0.5-5l-4.9,0.6l0.9,0.9l-9.6,9.6c-0.3,0.3-0.5,0.8-0.5,1.3c0,0.4,0.1,0.8,0.4,1.1
		c0,0,0.1,0.2,0.3,0.3c0.3,0.2,0.7,0.4,1.1,0.4c0.5,0,0.8,0,1.1-0.4L9.5,21l9.6-9.6L20,12.3z M7.8,20.4l-0.2-0.2l2.7-2.7l0.2,0.2
		L7.8,20.4z M11.5,16.7l-0.2-0.2l2.7-2.7l0.2,0.2L11.5,16.7z M15.2,13L15,12.7l2.7-2.7l0.2,0.2L15.2,13z"/>
</g>
</svg>
